<svg width="134" height="77" viewBox="0 0 134 77" fill="none" xmlns="http://www.w3.org/2000/svg">
<path d="M133.5 13.5H113C110.5 13.5 109 15.5 107.5 17C106 18.5 103.5 21.5 100 24C97.2 26 92.1667 26.8333 90 27H42V36.8086L68 37H85.5C88 37 90 35.5 91.5 34L97 28.5C98.5 27 102.5 24.5 105 24C106.781 23.6438 109.487 23.5255 111 23.5039V23.5H133.5V37H91C88.5 37 87 39 85.5 40.5C84 42 81.5 45 78 47.5C75.2 49.5 70.1667 50.3333 68 50.5L42 50.3086V63H59.5C62 63 64 61.5 65.5 60L71 54.5C72.5 53 76.5 50.5 79 50C81 49.6 84.1667 49.5 85.5 49.5H133.5V63H65C62.5 63 61 65 59.5 66.5C58 68 55.5 71 52 73.5C49.2 75.5 44.1667 76.3333 42 76.5H28V50.2051L14 50.1025V76.5H0V13.5H107.5C110 13.5 112 12 113.5 10.5L119 5C120.5 3.5 124.5 1 127 0.5C129 0.1 132.167 0 133.5 0V13.5ZM14 36.6025L28 36.7051V27H14V36.6025Z" fill="white"/>
</svg>
